<?xml version="1.0" encoding="UTF-8" standalone="no"?>
<svg width="64px" height="64px" viewBox="0 0 64 64" version="1.1" xmlns="http://www.w3.org/2000/svg">
    <g fill-rule="evenodd">
        <circle cx="32" cy="32" r="31" stroke-width="2" fill="none"></circle>
        <path d="M45.4736842,24.4210526 C44.4631579,24.9263158 43.4526316,25.0947368 42.2736842,25.2631579 C43.4526316,24.5894737 44.2947368,23.5789474 44.6315789,22.2315789 C43.6210526,22.9052632 42.4421053,23.2421053 41.0947368,23.5789474 C40.0842105,22.5684211 38.5684211,21.8947368 37.0526316,21.8947368 C34.1894737,21.8947368 31.6631579,24.4210526 31.6631579,27.4526316 C31.6631579,27.9578947 31.6631579,28.2947368 31.8315789,28.6315789 C27.2842105,28.4631579 23.0736842,26.2736842 20.3789474,22.9052632 C19.8736842,23.7473684 19.7052632,24.5894737 19.7052632,25.7684211 C19.7052632,27.6210526 20.7157895,29.3052632 22.2315789,30.3157895 C21.3894737,30.3157895 20.5473684,29.9789474 19.7052632,29.6421053 L19.7052632,29.6421053 C19.7052632,32.3368421 21.5578947,34.5263158 24.0842105,35.0315789 C23.5789474,35.2 23.0736842,35.2 22.5684211,35.2 C22.2315789,35.2 21.8947368,35.2 21.5578947,35.0315789 C22.2315789,37.2210526 24.2526316,38.9052632 26.7789474,38.9052632 C24.9263158,40.4210526 22.5684211,41.2631579 19.8736842,41.2631579 L18.5263158,41.2631579 C21.0526316,42.7789474 23.9157895,43.7894737 26.9473684,43.7894737 C37.0526316,43.7894737 42.6105263,35.3684211 42.6105263,28.1263158 L42.6105263,27.4526316 C43.7894737,26.6105263 44.8,25.6 45.4736842,24.4210526 L45.4736842,24.4210526 Z" stroke="none" fill="#000000"></path>
    </g>
</svg>