<?xml version="1.0" encoding="UTF-8" standalone="no"?>
<svg width="64px" height="64px" viewBox="0 0 64 52" version="1.1" xmlns="http://www.w3.org/2000/svg">
    <path d="M64,12 C61.6,13.2 59.2,13.6 56.4,14 C59.2,12.4 61.2,10 62,6.8 C59.6,8.4 56.8,9.2 53.6,10 C51.2,7.6 47.6,6 44,6 C37.2,6 31.2,12 31.2,19.2 C31.2,20.4 31.2,21.2 31.6,22 C20.8,21.6 10.8,16.4 4.4,8.4 C3.2,10.4 2.8,12.4 2.8,15.2 C2.8,19.6 5.2,23.6 8.8,26 C6.8,26 4.8,25.2 2.8,24.4 L2.8,24.4 C2.8,30.8 7.2,36 13.2,37.2 C12,37.6 10.8,37.6 9.6,37.6 C8.8,37.6 8,37.6 7.2,37.2 C8.8,42.4 13.6,46.4 19.6,46.4 C15.2,50 9.6,52 3.2,52 L-3.55271368e-15,52 C6,55.6 12.8,58 20,58 C44,58 57.2,38 57.2,20.8 L57.2,19.2 C60,17.2 62.4,14.8 64,12 L64,12 Z" stroke="none" fill="#000000" fill-rule="evenodd" />
</svg>