<?xml version="1.0" encoding="UTF-8" standalone="no"?><svg xmlns="http://www.w3.org/2000/svg" xmlns:xlink="http://www.w3.org/1999/xlink"><symbol viewBox="0 0 64 64" id="arrow-right"><g transform="translate(0 10)" fill="none" stroke-width="2"><path d="M41.95.063l21.676 22.282-21.677 21.07M59.135 22.456H.749"/></g></symbol><symbol viewBox="0 0 64 64" id="chevron-left"><defs><path id="bb" d="M45.553 16.052L40.5 11 19 32.5 40.5 54l5.053-5.053L29.14 32.5z"/><filter x="-50%" y="-50%" width="200%" height="200%" filterUnits="objectBoundingBox" id="ba"><feOffset in="SourceAlpha" result="a"/><feGaussianBlur stdDeviation="7.5" in="a" result="b"/><feColorMatrix values="0 0 0 0 0 0 0 0 0 0 0 0 0 0 0 0 0 0 0.5 0" in="b"/></filter></defs><g fill-rule="evenodd"><use filter="url(#ba)" xlink:href="#bb"/><use xlink:href="#bb"/></g></symbol><symbol viewBox="0 0 64 64" id="chevron-right"><defs><path id="cb" transform="matrix(-1 0 0 1 64.552 0)" d="M45.553 16.052L40.5 11 19 32.5 40.5 54l5.053-5.053L29.14 32.5z"/><filter x="-50%" y="-50%" width="200%" height="200%" filterUnits="objectBoundingBox" id="ca"><feOffset in="SourceAlpha" result="a"/><feGaussianBlur stdDeviation="7.5" in="a" result="b"/><feColorMatrix values="0 0 0 0 0 0 0 0 0 0 0 0 0 0 0 0 0 0 0.5 0" in="b"/></filter></defs><g fill-rule="evenodd"><use filter="url(#ca)" xlink:href="#cb"/><use xlink:href="#cb"/></g></symbol><symbol viewBox="0 0 64 64" id="email"><g fill-rule="evenodd"><circle cx="32" cy="32" r="31" fill="none"/><path d="M43.228 20.772H20.772a2.803 2.803 0 0 0-2.793 2.807l-.014 16.842a2.815 2.815 0 0 0 2.807 2.807h22.456a2.815 2.815 0 0 0 2.807-2.807V23.58a2.815 2.815 0 0 0-2.807-2.807zm0 5.614L32 33.404l-11.228-7.018v-2.807L32 30.596l11.228-7.017v2.807z"/></g></symbol><symbol viewBox="0 0 64 64" id="facebook"><g fill-rule="evenodd"><circle cx="32" cy="32" r="31" fill="none"/><path d="M28.67 45.474l-.038-11.79h-5.053v-5.052h5.053v-3.369c0-4.546 2.815-6.737 6.87-6.737 1.943 0 3.612.145 4.099.21v4.75l-2.813.002c-2.205 0-2.632 1.048-2.632 2.586v2.558h6.265l-1.684 5.052h-4.581v11.79H28.67z"/></g></symbol><symbol viewBox="0 0 64 64" id="twitter"><g fill-rule="evenodd"><circle cx="32" cy="32" r="31" fill="none"/><path d="M45.474 24.421c-1.01.505-2.021.674-3.2.842 1.179-.674 2.02-1.684 2.358-3.031-1.01.673-2.19 1.01-3.537 1.347-1.01-1.01-2.527-1.684-4.042-1.684-2.864 0-5.39 2.526-5.39 5.558 0 .505 0 .842.169 1.179-4.548-.169-8.758-2.358-11.453-5.727-.505.842-.674 1.684-.674 2.863 0 1.853 1.01 3.537 2.527 4.548-.843 0-1.685-.337-2.527-.674 0 2.695 1.853 4.884 4.38 5.39-.506.168-1.011.168-1.517.168-.336 0-.673 0-1.01-.168.674 2.19 2.695 3.873 5.22 3.873-1.852 1.516-4.21 2.358-6.904 2.358h-1.348c2.527 1.516 5.39 2.526 8.421 2.526 10.106 0 15.664-8.42 15.664-15.663v-.673c1.178-.842 2.189-1.853 2.863-3.032z"/></g></symbol><symbol viewBox="0 0 64 64" id="view-all"><g fill-rule="evenodd"><circle cx="32" cy="32" r="31" fill="none"/><path d="M29.286 13v16.286H13v5.428h16.286V51h5.428V34.714H51v-5.428H34.714V13z"/></g></symbol></svg>