<?xml version="1.0" standalone="no"?>
<!DOCTYPE svg PUBLIC "-//W3C//DTD SVG 20010904//EN"
 "http://www.w3.org/TR/2001/REC-SVG-20010904/DTD/svg10.dtd">
<svg version="1.0" xmlns="http://www.w3.org/2000/svg"
 width="16.000000pt" height="16.000000pt" viewBox="0 0 16.000000 16.000000"
 preserveAspectRatio="xMidYMid meet">
<metadata>
Created by potrace 1.11, written by Peter Selinger 2001-2013
</metadata>
<g transform="translate(0.000000,16.000000) scale(0.006154,-0.006154)"
fill="#000000" stroke="none">
<path d="M762 2555 c-16 -62 2 -97 35 -64 7 7 13 -2 18 -33 4 -24 9 -50 11
-58 2 -8 5 -36 8 -63 4 -42 2 -51 -24 -81 -34 -38 -36 -58 -16 -108 8 -19 17
-57 20 -84 3 -27 8 -74 12 -104 7 -63 19 -83 28 -46 3 14 6 27 6 28 0 2 8 28
19 58 11 30 17 59 14 64 -4 5 10 6 33 1 21 -4 46 -8 54 -10 16 -2 28 -34 13
-36 -4 0 -18 -2 -30 -5 -12 -2 -25 1 -28 6 -13 21 -22 8 -24 -37 -1 -26 -11
-66 -22 -88 -19 -35 -110 -156 -147 -194 -37 -38 64 -25 128 16 77 51 119 153
91 225 -6 15 -7 29 -3 32 12 7 35 -10 29 -21 -4 -5 0 -19 9 -31 l14 -21 24 24
c13 13 40 27 60 30 20 4 38 11 41 15 6 10 45 1 45 -10 0 -4 11 -12 25 -18 21
-10 25 -19 25 -52 0 -22 -3 -40 -7 -40 -5 0 -14 -12 -21 -28 -11 -23 -10 -29
4 -39 15 -11 15 -17 5 -39 -6 -14 -9 -34 -6 -43 7 -24 65 -19 86 8 25 30 32
26 15 -8 -19 -35 -16 -82 4 -98 8 -6 16 -16 16 -22 1 -6 2 -17 3 -24 1 -9 11
-12 32 -9 31 5 31 5 24 51 -12 79 -12 85 0 106 10 16 10 29 -4 70 l-18 50 -18
-43 c-10 -23 -22 -42 -26 -42 -4 0 4 22 17 50 13 27 24 54 24 59 0 5 8 8 18 7
13 -1 16 5 13 29 -9 76 -17 70 98 69 97 -1 116 7 46 19 -63 11 -135 38 -135
51 0 8 35 24 83 40 90 29 133 51 82 40 -16 -3 -66 -8 -111 -11 -111 -7 -115 6
-28 91 36 36 57 63 47 62 -9 -2 -19 -8 -21 -14 -2 -7 -8 -12 -14 -12 -5 0 -34
-16 -64 -36 -46 -30 -58 -34 -81 -26 l-28 9 2 94 c1 59 -1 87 -7 74 -17 -40
-27 -70 -33 -100 -2 -8 -6 -18 -10 -21 -4 -4 -7 -16 -7 -26 0 -11 -4 -16 -10
-13 -5 3 -10 1 -10 -6 0 -7 -3 -10 -6 -6 -3 3 -16 2 -29 -3 -19 -7 -30 0 -74
46 -28 30 -51 59 -51 64 0 6 -4 10 -9 10 -15 0 -8 -21 27 -83 38 -67 38 -68
11 -85 -24 -15 -147 -14 -156 1 -3 6 -8 29 -10 51 -6 64 -11 111 -13 111 -4 0
-13 147 -14 227 l-1 98 -45 0 c-46 0 -46 0 -58 -45z"/>
<path d="M686 1967 c-30 -50 -52 -110 -71 -191 -15 -64 -6 -106 28 -135 15
-12 17 -11 18 8 1 11 3 26 4 31 1 6 3 15 4 20 0 6 14 10 30 10 28 0 61 22 61
40 0 5 -5 21 -10 36 -6 15 -13 64 -15 108 -2 45 -4 89 -4 99 -2 29 -19 19 -45
-26z"/>
<path d="M1012 1748 c0 -18 -2 -49 -5 -68 -3 -19 -8 -62 -12 -95 -4 -35 -27
-111 -56 -184 -27 -69 -49 -128 -49 -133 0 -4 16 2 35 14 35 23 37 27 38 86 0
17 5 32 9 32 5 0 7 4 4 9 -3 5 1 14 9 21 8 7 15 18 15 24 0 14 59 51 67 42 4
-3 11 -2 17 3 6 5 29 12 51 15 65 11 72 40 20 88 -20 17 -53 59 -74 93 -21 33
-45 66 -54 73 -14 12 -16 9 -15 -20z"/>
<path d="M920 1722 c-19 -26 -41 -53 -48 -60 -27 -30 -61 -132 -43 -132 6 0
11 5 11 10 0 6 8 19 18 29 29 32 42 50 42 56 0 3 16 37 34 75 19 39 32 70 28
70 -4 0 -23 -22 -42 -48z"/>
<path d="M830 1671 c0 -4 -34 -23 -75 -41 -41 -18 -81 -43 -89 -55 -20 -31
-31 -75 -18 -75 6 0 17 -2 24 -5 13 -5 73 50 147 135 32 37 38 50 21 50 -5 0
-10 -4 -10 -9z"/>
<path d="M955 1616 c-6 -6 -32 -39 -59 -73 -27 -35 -54 -63 -59 -63 -6 0 -8
-2 -5 -5 3 -3 -25 -37 -62 -75 -51 -53 -70 -81 -79 -114 -15 -59 -15 -59 17
-42 59 30 136 96 158 136 13 22 23 42 23 43 0 3 13 36 50 126 31 77 34 88 16
67z"/>
<path d="M1233 1443 c-75 -70 -166 -148 -228 -195 -109 -82 -171 -159 -292
-363 -50 -84 -61 -168 -28 -205 19 -21 60 -26 83 -11 7 4 22 46 33 92 10 46
21 89 22 94 6 18 29 100 31 110 11 51 29 95 38 95 16 0 3 -76 -22 -133 -12
-27 -19 -52 -15 -55 3 -4 9 -1 13 5 4 6 16 22 26 36 22 29 140 197 194 277 20
30 39 57 42 60 3 3 21 30 39 60 19 30 52 81 73 113 22 31 37 57 35 57 -2 0
-22 -17 -44 -37z"/>
<path d="M1375 1437 c-12 -15 -29 -50 -138 -282 -108 -229 -131 -279 -132
-285 0 -3 -6 -15 -13 -27 -7 -13 -22 -53 -33 -90 -35 -113 -79 -212 -151 -335
-37 -64 -68 -121 -68 -127 0 -6 -4 -11 -8 -11 -5 0 -9 -6 -10 -12 0 -7 -5 -31
-11 -53 -6 -22 -7 -67 -4 -100 3 -33 6 -72 6 -87 l-1 -28 89 0 89 0 25 40 c45
72 124 243 131 285 14 76 39 172 61 231 40 109 120 375 137 461 17 83 21 119
31 278 3 55 8 112 10 128 6 30 5 32 -10 14z"/>
<path d="M1418 1438 c-4 -9 -4 -19 0 -22 3 -4 7 -16 9 -28 2 -12 13 -52 25
-88 16 -50 20 -88 19 -168 l-1 -103 31 22 c27 19 34 20 55 9 13 -8 24 -19 24
-25 0 -7 7 -18 15 -25 12 -10 14 -8 11 7 -2 10 -7 45 -11 78 -3 32 -11 67 -16
77 -5 10 -7 18 -4 18 14 0 -110 212 -135 230 -4 3 -9 12 -12 19 -4 13 -5 12
-10 -1z"/>
<path d="M783 1258 c-71 -60 -78 -73 -53 -98 11 -11 20 -26 20 -34 0 -34 26
-65 27 -33 1 6 17 56 36 110 19 53 32 97 28 97 -4 0 -30 -19 -58 -42z"/>
<path d="M1787 1179 c-3 -12 -10 -18 -16 -15 -13 9 -52 -33 -117 -126 -32 -46
-37 -60 -40 -119 -1 -37 -7 -76 -12 -86 -8 -13 -5 -24 8 -43 21 -30 47 -115
55 -185 4 -27 13 -55 21 -61 23 -18 58 -11 69 14 5 12 13 22 17 22 4 0 15 16
24 36 10 20 47 64 82 98 116 109 161 158 168 178 4 12 -4 34 -21 59 l-26 40
21 26 c16 20 18 28 8 34 -9 6 -8 10 5 15 26 10 11 23 -67 59 -77 36 -167 75
-171 75 -2 0 -5 -9 -8 -21z"/>
<path d="M1088 1013 c-18 -27 -47 -68 -63 -93 -36 -54 -44 -65 -67 -91 -10
-10 -15 -19 -10 -19 4 0 2 -4 -3 -8 -17 -12 -188 -273 -217 -332 -16 -30 -28
-65 -28 -77 0 -33 32 -62 62 -56 20 4 33 22 68 101 23 54 47 100 52 103 5 3 9
8 8 10 -1 2 21 51 47 109 27 58 55 120 62 138 8 17 17 32 22 32 5 0 9 5 9 11
0 12 57 139 86 192 23 42 9 32 -28 -20z"/>
<path d="M1548 934 c-7 -12 -22 -77 -20 -86 1 -4 -19 -27 -43 -53 -39 -39 -45
-52 -45 -88 -1 -23 -3 -82 -6 -132 -3 -49 -7 -135 -9 -190 -2 -55 -6 -164 -10
-242 l-7 -143 145 0 c80 0 148 3 151 8 2 4 0 30 -5 57 -5 28 -12 66 -14 85 -3
19 -7 46 -10 60 -2 14 -7 47 -10 74 -3 27 -12 81 -20 120 -8 39 -17 89 -19
111 -8 62 -16 116 -26 170 -14 77 -20 116 -26 168 -6 56 -18 94 -26 81z"/>
<path d="M1362 318 c-9 -13 -45 -78 -47 -88 -2 -6 -15 -37 -40 -95 -9 -22 -23
-61 -30 -87 l-13 -48 66 0 67 0 1 78 c0 42 3 116 7 165 3 48 4 87 2 87 -1 0
-7 -6 -13 -12z"/>
<path d="M1233 188 c-6 -7 -18 -27 -26 -44 -9 -18 -39 -57 -68 -88 l-51 -56
51 0 c28 0 52 5 52 10 2 13 4 21 12 40 17 44 46 144 43 147 -2 2 -8 -2 -13 -9z"/>
</g>
</svg>
